<svg width="20" height="20" viewBox="0 0 20 20" fill="none" xmlns="http://www.w3.org/2000/svg">
<path d="M6.25025 10.0002H10.0003M10.0003 10.0002H13.7503M10.0003 10.0002V6.25025M10.0003 10.0002V13.7502M1.77525 12.4752C1.45021 12.1502 1.19237 11.7644 1.01646 11.3397C0.840542 10.9151 0.75 10.4599 0.75 10.0002C0.75 9.54059 0.840542 9.08543 1.01646 8.66077C1.19237 8.23611 1.45021 7.85025 1.77525 7.52524L7.52525 1.77524C7.85026 1.4502 8.23612 1.19236 8.66078 1.01645C9.08544 0.840534 9.5406 0.749992 10.0003 0.749992C10.4599 0.749992 10.9151 0.840534 11.3397 1.01645C11.7644 1.19236 12.1502 1.4502 12.4753 1.77524L18.2253 7.52524C18.5503 7.85025 18.8081 8.23611 18.984 8.66077C19.16 9.08543 19.2505 9.54059 19.2505 10.0002C19.2505 10.4599 19.16 10.9151 18.984 11.3397C18.8081 11.7644 18.5503 12.1502 18.2253 12.4752L12.4753 18.2252C12.1502 18.5503 11.7644 18.8081 11.3397 18.984C10.9151 19.16 10.4599 19.2505 10.0003 19.2505C9.5406 19.2505 9.08544 19.16 8.66078 18.984C8.23612 18.8081 7.85026 18.5503 7.52525 18.2252L1.77525 12.4752Z" stroke="currentColor" stroke-width="1.5" stroke-linecap="round" stroke-linejoin="round"/>
</svg>
